/* XPM */
static char *abacusme_48x48[] = {
/* width height ncolors chars_per_pixel */
"48 48 3 1",
/* colors */
"  c None",
"+ c #000000",
"X c #8B7E66",
/* pixels */
"XXXXXXXXXXXXXXXXXXXXXXXXXXXXXXXXXXXXXXXXXXXXXXXX",
"XXXXXXXXXXXXXXXXXXXXXXXXXXXXXXXXXXXXXXXXXXXXXXXX",
"XX                                            XX",
"XX                                            XX",
"XX                                            XX",
"XX                                            XX",
"XX                                            XX",
"XX                                            XX",
"XX                                            XX",
"XX  ++++++++++++++++++++++++++++++++++++++++  XX",
"XX  ++++++++++++++++++++++++++++++++++++++++  XX",
"XX                                            XX",
"XX                                            XX",
"XX                                            XX",
"XX                  ++    ++                  XX",
"XX                   ++  ++                   XX",
"XX                    ++++                    XX",
"XX  ++++++++++++++++++++++++++++++++++++++++  XX",
"XX  ++++++++++++++++++++++++++++++++++++++++  XX",
"XX                    ++++                    XX",
"XX                   ++  ++                   XX",
"XX                  ++    ++                  XX",
"XX                                            XX",
"XX                                            XX",
"XX                                            XX",
"XX  ++++++++++++++++++++++++++++++++++++++++  XX",
"XX  ++++++++++++++++++++++++++++++++++++++++  XX",
"XX                                            XX",
"XX                                            XX",
"XX                                            XX",
"XX                                            XX",
"XX                                            XX",
"XX                                            XX",
"XX  ++++++++++++++++++++++++++++++++++++++++  XX",
"XX  ++++++++++++++++++++++++++++++++++++++++  XX",
"XX                                            XX",
"XX                                            XX",
"XX                                            XX",
"XX                                            XX",
"XX                                            XX",
"XX                                            XX",
"XX  ++++++++++++++++++++++++++++++++++++++++  XX",
"XX  ++++++++++++++++++++++++++++++++++++++++  XX",
"XX                                            XX",
"XX                                            XX",
"XX                                            XX",
"XX                                            XX",
"XXXXXXXXXXXXXXXXXXXXXXXXXXXXXXXXXXXXXXXXXXXXXXXX",
"XXXXXXXXXXXXXXXXXXXXXXXXXXXXXXXXXXXXXXXXXXXXXXXX"
};
