/* XPM */
static char *abacusru_48x48[] = {
/* width height ncolors chars_per_pixel */
"48 48 5 1",
/* colors */
"  c None",
"+ c #8B0000",
"= c #600000",
"X c #8B7E66",
"O c #CAE1FF",
/* pixels */
"XXXXXXXXXXXXXXXXXXXXXXXXXXXXXXXXXXXXXXXXXXXXXXXX",
"XXXXXXXXXXXXXXXXXXXXXXXXXXXXXXXXXXXXXXXXXXXXXXXX",
"XX                                            XX",
"XX                                            XX",
"XX                                            XX",
"XX           ++   ++   ++   ==   ++   ++   ++ XX",
"XX          ++++ ++++ ++++ ==== ++++ ++++ ++++XX",
"XXOOOOOOOOOO++++O++++O++++O====O++++O++++O++++XX",
"XXOOOOOOOOOO++++O++++O++++O====O++++O++++O++++XX",
"XX          ++++ ++++ ++++ ==== ++++ ++++ ++++XX",
"XX           ++   ++   ++   ==   ++   ++   ++ XX",
"XX                                            XX",
"XX                                            XX",
"XX           ==   ++   ++   ==   ++   ++   ++ XX",
"XX          ==== ++++ ++++ ==== ++++ ++++ ++++XX",
"XXOOOOOOOOOO====O++++O++++O====O++++O++++O++++XX",
"XXOOOOOOOOOO====O++++O++++O====O++++O++++O++++XX",
"XX          ==== ++++ ++++ ==== ++++ ++++ ++++XX",
"XX           ==   ++   ++   ==   ++   ++   ++ XX",
"XX                                            XX",
"XX                                            XX",
"XX           ++   ++   ++   ==   ++   ++   ++ XX",
"XX          ++++ ++++ ++++ ==== ++++ ++++ ++++XX",
"XXOOOOOOOOOO++++O++++O++++O====O++++O++++O++++XX",
"XXOOOOOOOOOO++++O++++O++++O====O++++O++++O++++XX",
"XX          ++++ ++++ ++++ ==== ++++ ++++ ++++XX",
"XX           ++   ++   ++   ==   ++   ++   ++ XX",
"XX                                            XX",
"XX                                            XX",
"XX           ++   ++   ++   ==   ++   ++   ++ XX",
"XX          ++++ ++++ ++++ ==== ++++ ++++ ++++XX",
"XXOOOOOOOOOO++++O++++O++++O====O++++O++++O++++XX",
"XXOOOOOOOOOO++++O++++O++++O====O++++O++++O++++XX",
"XX          ++++ ++++ ++++ ==== ++++ ++++ ++++XX",
"XX           ++   ++   ++   ==   ++   ++   ++ XX",
"XX                                            XX",
"XX                                            XX",
"XX           ++   ++   ++   ==   ++   ++   ++ XX",
"XX          ++++ ++++ ++++ ==== ++++ ++++ ++++XX",
"XXOOOOOOOOOO++++O++++O++++O====O++++O++++O++++XX",
"XXOOOOOOOOOO++++O++++O++++O====O++++O++++O++++XX",
"XX          ++++ ++++ ++++ ==== ++++ ++++ ++++XX",
"XX           ++   ++   ++   ==   ++   ++   ++ XX",
"XX                                            XX",
"XX                                            XX",
"XX                                            XX",
"XXXXXXXXXXXXXXXXXXXXXXXXXXXXXXXXXXXXXXXXXXXXXXXX",
"XXXXXXXXXXXXXXXXXXXXXXXXXXXXXXXXXXXXXXXXXXXXXXXX"
};
