/* XPM */
static char *abacusro_48x48[] = {
/* width height ncolors chars_per_pixel */
"48 48 4 1",
/* colors */
"  c None",
"+ c #8B0000",
"X c #8B7E66",
". c #AEB2C3",
/* pixels */
"XXXXXXXXXXXXXXXXXXXXXXXXXXXXXXXXXXXXXXXXXXXXXXXX",
"XXXXXXXXXXXXXXXXXXXXXXXXXXXXXXXXXXXXXXXXXXXXXXXX",
"XX....++++....++++....++++....++++....++++....XX",
"XX...++++++..++++++..++++++..++++++..++++++...XX",
"XX...++++++..++++++..++++++..++++++..++++++...XX",
"XX....++++....++++....++++....++++....++++....XX",
"XX.....  ......  ......  ......  ......  .....XX",
"XX.....  ......  ......  ......  ......  .....XX",
"XX.....  ......  ......  ......  ......  .....XX",
"XX.....  ......  ......  ......  ......  .....XX",
"XX.....  ......  ......  ......  ......  .....XX",
"XX.....  ......  ......  ......  ......  .....XX",
"XX.....  ......  ......  ......  ......  .....XX",
"XX.....  ......  ......  ......  ......  .....XX",
"XX............................................XX",
"XX............................................XX",
"XX............................................XX",
"XX............................................XX",
"XX.....  ......  ......  ......  ......  .....XX",
"XX.....  ......  ......  ......  ......  .....XX",
"XX.....  ......  ......  ......  ......  .....XX",
"XX.....  ......  ......  ......  ......  .....XX",
"XX.....  ......  ......  ......  ......  .....XX",
"XX.....  ......  ......  ......  ......  .....XX",
"XX.....  ......  ......  ......  ......  .....XX",
"XX.....  ......  ......  ......  ......  .....XX",
"XX.....  ......  ......  ......  ......  .....XX",
"XX....++++....++++....++++....++++....++++....XX",
"XX...++++++..++++++..++++++..++++++..++++++...XX",
"XX...++++++..++++++..++++++..++++++..++++++...XX",
"XX....++++....++++....++++....++++....++++....XX",
"XX.....  ......  ......  ......  ......  .....XX",
"XX....++++....++++....++++....++++....++++....XX",
"XX...++++++..++++++..++++++..++++++..++++++...XX",
"XX...++++++..++++++..++++++..++++++..++++++...XX",
"XX....++++....++++....++++....++++....++++....XX",
"XX.....  ......  ......  ......  ......  .....XX",
"XX....++++....++++....++++....++++....++++....XX",
"XX...++++++..++++++..++++++..++++++..++++++...XX",
"XX...++++++..++++++..++++++..++++++..++++++...XX",
"XX....++++....++++....++++....++++....++++....XX",
"XX.....  ......  ......  ......  ......  .....XX",
"XX....++++....++++....++++....++++....++++....XX",
"XX...++++++..++++++..++++++..++++++..++++++...XX",
"XX...++++++..++++++..++++++..++++++..++++++...XX",
"XX....++++....++++....++++....++++....++++....XX",
"XXXXXXXXXXXXXXXXXXXXXXXXXXXXXXXXXXXXXXXXXXXXXXXX",
"XXXXXXXXXXXXXXXXXXXXXXXXXXXXXXXXXXXXXXXXXXXXXXXX"
};
