/* XPM */
static char *abacusdk_48x48[] = {
/* width height ncolors chars_per_pixel */
"48 48 5 1",
/* colors */
"  c None",
"+ c #8B0000",
"X c #8B7E66",
"O c #CAE1FF",
"- c #8B7355",
/* pixels */
"XXXXXXXXXXXXXXXXXXXXXXXXXXXXXXXXXXXXXXXXXXXXXXXX",
"XXXXXXXXXXXXXXXXXXXXXXXXXXXXXXXXXXXXXXXXXXXXXXXX",
"XX                                            XX",
"XX                                            XX",
"XX                                            XX",
"XX ++   ++   ++   --   --   --   --           XX",
"XX++++ ++++ ++++ ---- ---- ---- ----          XX",
"XX++++O++++O++++O----O----O----O----OOOOOOOOOOXX",
"XX++++O++++O++++O----O----O----O----OOOOOOOOOOXX",
"XX++++ ++++ ++++ ---- ---- ---- ----          XX",
"XX ++   ++   ++   --   --   --   --           XX",
"XX                                            XX",
"XX                                            XX",
"XX ++   ++   ++   --   --   --   --           XX",
"XX++++ ++++ ++++ ---- ---- ---- ----          XX",
"XX++++O++++O++++O----O----O----O----OOOOOOOOOOXX",
"XX++++O++++O++++O----O----O----O----OOOOOOOOOOXX",
"XX++++ ++++ ++++ ---- ---- ---- ----          XX",
"XX ++   ++   ++   --   --   --   --           XX",
"XX                                            XX",
"XX                                            XX",
"XX ++   ++   ++   --   --   --   --           XX",
"XX++++ ++++ ++++ ---- ---- ---- ----          XX",
"XX++++O++++O++++O----O----O----O----OOOOOOOOOOXX",
"XX++++O++++O++++O----O----O----O----OOOOOOOOOOXX",
"XX++++ ++++ ++++ ---- ---- ---- ----          XX",
"XX ++   ++   ++   --   --   --   --           XX",
"XX                                            XX",
"XX                                            XX",
"XX ++   ++   ++   --   --   --   --           XX",
"XX++++ ++++ ++++ ---- ---- ---- ----          XX",
"XX++++O++++O++++O----O----O----O----OOOOOOOOOOXX",
"XX++++O++++O++++O----O----O----O----OOOOOOOOOOXX",
"XX++++ ++++ ++++ ---- ---- ---- ----          XX",
"XX ++   ++   ++   --   --   --   --           XX",
"XX                                            XX",
"XX                                            XX",
"XX ++   ++   ++   --   --   --   --           XX",
"XX++++ ++++ ++++ ---- ---- ---- ----          XX",
"XX++++O++++O++++O----O----O----O----OOOOOOOOOOXX",
"XX++++O++++O++++O----O----O----O----OOOOOOOOOOXX",
"XX++++ ++++ ++++ ---- ---- ---- ----          XX",
"XX ++   ++   ++   --   --   --   --           XX",
"XX                                            XX",
"XX                                            XX",
"XX                                            XX",
"XXXXXXXXXXXXXXXXXXXXXXXXXXXXXXXXXXXXXXXXXXXXXXXX",
"XXXXXXXXXXXXXXXXXXXXXXXXXXXXXXXXXXXXXXXXXXXXXXXX"
};
