/* XPM */
static char *abacusleecnn_64x64[] = {
/* width height ncolors chars_per_pixel */
"64 64 6 1",
/* colors */
"  c None",
"+ c #8B0000",
"X c #8B7E66",
"o c #FFD700",
"a c #00FF00",
"b c #DFDFDF",
/* pixels */
"XXXXXXXXXXXXXXXXXXXXXXXXXXXXXXXXXXXXXXXXXXXXXXXXXXXXXXXXXXXXXXXX",
"XXXXXXXXXXXXXXXXXXXXXXXXXXXXXXXXXXXXXXXXXXXXXXXXXXXXXXXXXXXXXXXX",
"XXXXXXXXXXXXXXXXXXXXXXXXXXXXXXXXXXXXXXXXXXXXXXXXXXXXXXXXXXXXXXXX",
"XXXaaa aaa aaa aaa aaa XX bbb bbb bbb bbb bbb bbb bbb bbb bbbXXX",
"XXXaaa  a  aaa  a  aaa XX bbb  b  bbb  b  bbb  b  bbb  b  bbbXXX",
"XXX o   o   o   o   o  XX  o   o   o   o   o   o   o   o   o XXX",
"XXX o   o   o   o   o  XX  o   o   o   o   o   o   o   o   o XXX",
"XXX o   o   o   o   o  XX  o   o   o   o   o   o   o   o   o XXX",
"XXX o   o   o   o   o  XX  o   o   o   o   o   o   o   o   o XXX",
"XXXXXXXXXXXXXXXXXXXXXXXXXXXXXXXXXXXXXXXXXXXXXXXXXXXXXXXXXXXXXXXX",
"XXX o   o   o   o   o  XX  o   o   o   o   o   o   o   o   o XXX",
"XXX o   o   o   o   o  XX  o   o   o   o   o   o   o   o   o XXX",
"XXX o   o   o   o   o  XX  o   o   o   o   o   o   o   o   o XXX",
"XXX o   o   o   o   o  XX  o   o   o   o   o   o   o   o   o XXX",
"XXXaaa  a  aaa  a  aaa XX bbb  b  bbb  b  bbb  b  bbb  b  bbbXXX",
"XXXaaa aaa aaa aaa aaa XX bbb bbb bbb bbb bbb bbb bbb bbb bbbXXX",
"XXX a  aaa  a  aaa  a  XX  b  bbb  b  bbb  b  bbb  b  bbb  b XXX",
"XXXaaa aaa aaa aaa aaa XX bbb bbb bbb bbb bbb bbb bbb bbb bbbXXX",
"XXXaaa  a  aaa  a  aaa XX bbb  b  bbb  b  bbb  b  bbb  b  bbbXXX",
"XXXaaa aaa aaa aaa aaa XX bbb bbb bbb bbb bbb bbb bbb bbb bbbXXX",
"XXX a  aaa  a  aaa  a  XX  b  bbb  b  bbb  b  bbb  b  bbb  b XXX",
"XXXaaa aaa aaa aaa aaa XX bbb bbb bbb bbb bbb bbb bbb bbb bbbXXX",
"XXXXXXXXXXXXXXXXXXXXXXXXXXXXXXXXXXXXXXXXXXXXXXXXXXXXXXXXXXXXXXXX",
"XXXXXXXXXXXXXXXXXXXXXXXXXXXXXXXXXXXXXXXXXXXXXXXXXXXXXXXXXXXXXXXX",
"XXXXXXXXXXXXXXXXXXXXXXXXXXXXXXXXXXXXXXXXXXXXXXXXXXXXXXXXXXXXXXXX",
"XXX   ++++    ++++    ++++    ++++    ++++    ++++    ++++   XXX",
"XXX  ++++++  ++++++  ++++++  ++++++  ++++++  ++++++  ++++++  XXX",
"XXX  ++++++  ++++++  ++++++  ++++++  ++++++  ++++++  ++++++  XXX",
"XXX   ++++    ++++    ++++    ++++    ++++    ++++    ++++   XXX",
"XXX   ++++    ++++    ++++    ++++    ++++    ++++    ++++   XXX",
"XXX  ++++++  ++++++  ++++++  ++++++  ++++++  ++++++  ++++++  XXX",
"XXX  ++++++  ++++++  ++++++  ++++++  ++++++  ++++++  ++++++  XXX",
"XXX   ++++    ++++    ++++    ++++    ++++    ++++    ++++   XXX",
"XXX    oo      oo      oo      oo      oo      oo      oo    XXX",
"XXX    oo      oo      oo      oo      oo      oo      oo    XXX",
"XXX    oo      oo      oo      oo      oo      oo      oo    XXX",
"XXXXXXXXXXXXXXXXXXXXXXXXXXXXXXXXXXXXXXXXXXXXXXXXXXXXXXXXXXXXXXXX",
"XXXXXXXXXXXXXXXXXXXXXXXXXXXXXXXXXXXXXXXXXXXXXXXXXXXXXXXXXXXXXXXX",
"XXX    oo      oo      oo      oo      oo      oo      oo    XXX",
"XXX    oo      oo      oo      oo      oo      oo      oo    XXX",
"XXX    oo      oo      oo      oo      oo      oo      oo    XXX",
"XXX   ++++    ++++    ++++    ++++    ++++    ++++    ++++   XXX",
"XXX  ++++++  ++++++  ++++++  ++++++  ++++++  ++++++  ++++++  XXX",
"XXX  ++++++  ++++++  ++++++  ++++++  ++++++  ++++++  ++++++  XXX",
"XXX   ++++    ++++    ++++    ++++    ++++    ++++    ++++   XXX",
"XXX   ++++    ++++    ++++    ++++    ++++    ++++    ++++   XXX",
"XXX  ++++++  ++++++  ++++++  ++++++  ++++++  ++++++  ++++++  XXX",
"XXX  ++++++  ++++++  ++++++  ++++++  ++++++  ++++++  ++++++  XXX",
"XXX   ++++    ++++    ++++    ++++    ++++    ++++    ++++   XXX",
"XXX   ++++    ++++    ++++    ++++    ++++    ++++    ++++   XXX",
"XXX  ++++++  ++++++  ++++++  ++++++  ++++++  ++++++  ++++++  XXX",
"XXX  ++++++  ++++++  ++++++  ++++++  ++++++  ++++++  ++++++  XXX",
"XXX   ++++    ++++    ++++    ++++    ++++    ++++    ++++   XXX",
"XXX   ++++    ++++    ++++    ++++    ++++    ++++    ++++   XXX",
"XXX  ++++++  ++++++  ++++++  ++++++  ++++++  ++++++  ++++++  XXX",
"XXX  ++++++  ++++++  ++++++  ++++++  ++++++  ++++++  ++++++  XXX",
"XXX   ++++    ++++    ++++    ++++    ++++    ++++    ++++   XXX",
"XXX   ++++    ++++    ++++    ++++    ++++    ++++    ++++   XXX",
"XXX  ++++++  ++++++  ++++++  ++++++  ++++++  ++++++  ++++++  XXX",
"XXX  ++++++  ++++++  ++++++  ++++++  ++++++  ++++++  ++++++  XXX",
"XXX   ++++    ++++    ++++    ++++    ++++    ++++    ++++   XXX",
"XXXXXXXXXXXXXXXXXXXXXXXXXXXXXXXXXXXXXXXXXXXXXXXXXXXXXXXXXXXXXXXX",
"XXXXXXXXXXXXXXXXXXXXXXXXXXXXXXXXXXXXXXXXXXXXXXXXXXXXXXXXXXXXXXXX",
"XXXXXXXXXXXXXXXXXXXXXXXXXXXXXXXXXXXXXXXXXXXXXXXXXXXXXXXXXXXXXXXX"
};
