/* XPM */
static char *abacusro_64x64[] = {
/* width height ncolors chars_per_pixel */
"64 64 5 1",
/* colors */
"  c None",
"+ c #8B0000",
"X c #8B7E66",
". c #AEB2C3",
"= c #600000",
/* pixels */
"XXXXXXXXXXXXXXXXXXXXXXXXXXXXXXXXXXXXXXXXXXXXXXXXXXXXXXXXXXXXXXXX",
"XXXXXXXXXXXXXXXXXXXXXXXXXXXXXXXXXXXXXXXXXXXXXXXXXXXXXXXXXXXXXXXX",
"XXXXXXXXXXXXXXXXXXXXXXXXXXXXXXXXXXXXXXXXXXXXXXXXXXXXXXXXXXXXXXXX",
"XXX...++++....++++....++++....++++....++++....====...........XXX",
"XXX..++++++..++++++..++++++..++++++..++++++..======..........XXX",
"XXX..++++++..++++++..++++++..++++++..++++++..======..........XXX",
"XXX...++++....++++....++++....++++....++++....====...........XXX",
"XXX....  ......  ......  ......  ......  ......  ............XXX",
"XXX....  ......  ......  ......  ......  ......  ............XXX",
"XXX....  ......  ......  ......  ......  ......  ............XXX",
"XXX....  ......  ......  ......  ......  ......  ............XXX",
"XXX....  ......  ......  ......  ......  ......  ............XXX",
"XXX....  ......  ......  ......  ......  ......  ............XXX",
"XXX....  ......  ......  ......  ......  ......  ............XXX",
"XXX....  ......  ......  ......  ......  ......  ............XXX",
"XXX....  ......  ......  ......  ......  ......  ............XXX",
"XXX....  ......  ......  ......  ......  ......  ............XXX",
"XXX....  ......  ......  ......  ......  ......  ............XXX",
"XXX....  ......  ......  ......  ......  ......  ............XXX",
"XXX....  ......  ......  ......  ......  ......  ............XXX",
"XXX....  ......  ......  ......  ......  ......  ............XXX",
"XXX..........................................................XXX",
"XXX..........................................................XXX",
"XXX..........................................................XXX",
"XXX..........................................................XXX",
"XXX..........................................................XXX",
"XXX..........................................................XXX",
"XXX....  ......  ......  ......  ......  ......  ......  ....XXX",
"XXX....  ......  ......  ......  ......  ......  ......  ....XXX",
"XXX....  ......  ......  ......  ......  ......  ......  ....XXX",
"XXX....  ......  ......  ......  ......  ......  ......  ....XXX",
"XXX....  ......  ......  ......  ......  ......  ......  ....XXX",
"XXX....  ......  ......  ......  ......  ......  .....++++...XXX",
"XXX....  ......  ......  ......  ......  ......  ....++++++..XXX",
"XXX....  ......  ......  ......  ......  ......  ....++++++..XXX",
"XXX....  ......  ......  ......  ......  ......  .....++++...XXX",
"XXX....  ......  ......  ......  ......  ......  ............XXX",
"XXX....  ......  ......  ......  ......  .....====...........XXX",
"XXX....  ......  ......  ......  ......  ....======....  ....XXX",
"XXX....  ......  ......  ......  ......  ....======....  ....XXX",
"XXX....  ......  ......  ......  ......  .....====.....  ....XXX",
"XXX....  ......  ......  ......  ......  ......  ......  ....XXX",
"XXX...++++....++++....++++....++++....++++....====....====...XXX",
"XXX..++++++..++++++..++++++..++++++..++++++..======..======..XXX",
"XXX..++++++..++++++..++++++..++++++..++++++..======..======..XXX",
"XXX...++++....++++....++++....++++....++++....====....====...XXX",
"XXX....  ......  ......  ......  ......  ......  ............XXX",
"XXX...++++....++++....++++....++++....++++....====...........XXX",
"XXX..++++++..++++++..++++++..++++++..++++++..======....  ....XXX",
"XXX..++++++..++++++..++++++..++++++..++++++..======....  ....XXX",
"XXX...++++....++++....++++....++++....++++....====.....  ....XXX",
"XXX....  ......  ......  ......  ......  ......  ......  ....XXX",
"XXX...++++....++++....++++....++++....++++....====....++++...XXX",
"XXX..++++++..++++++..++++++..++++++..++++++..======..++++++..XXX",
"XXX..++++++..++++++..++++++..++++++..++++++..======..++++++..XXX",
"XXX...++++....++++....++++....++++....++++....====....++++...XXX",
"XXX....  ......  ......  ......  ......  ......  ......  ....XXX",
"XXX...++++....++++....++++....++++....++++....====....++++...XXX",
"XXX..++++++..++++++..++++++..++++++..++++++..======..++++++..XXX",
"XXX..++++++..++++++..++++++..++++++..++++++..======..++++++..XXX",
"XXX...++++....++++....++++....++++....++++....====....++++...XXX",
"XXXXXXXXXXXXXXXXXXXXXXXXXXXXXXXXXXXXXXXXXXXXXXXXXXXXXXXXXXXXXXXX",
"XXXXXXXXXXXXXXXXXXXXXXXXXXXXXXXXXXXXXXXXXXXXXXXXXXXXXXXXXXXXXXXX",
"XXXXXXXXXXXXXXXXXXXXXXXXXXXXXXXXXXXXXXXXXXXXXXXXXXXXXXXXXXXXXXXX"
};
