/* XPM */
static char *abacusru_64x64[] = {
/* width height ncolors chars_per_pixel */
"64 64 5 1",
/* colors */
"  c None",
"+ c #8B0000",
"= c #600000",
"X c #8B7E66",
"O c #CAE1FF",
/* pixels */
"XXXXXXXXXXXXXXXXXXXXXXXXXXXXXXXXXXXXXXXXXXXXXXXXXXXXXXXXXXXXXXXX",
"XXXXXXXXXXXXXXXXXXXXXXXXXXXXXXXXXXXXXXXXXXXXXXXXXXXXXXXXXXXXXXXX",
"XXXXXXXXXXXXXXXXXXXXXXXXXXXXXXXXXXXXXXXXXXXXXXXXXXXXXXXXXXXXXXXX",
"XXX                                                          XXX",
"XXX                                                          XXX",
"XXX          ==   ++   ++   ++   ==   ==   ++   ++   ++   ++ XXX",
"XXX         ==== ++++ ++++ ++++ ==== ==== ++++ ++++ ++++ ++++XXX",
"XXXOOOOOOOOO====O++++O++++O++++O====O====O++++O++++O++++O++++XXX",
"XXXOOOOOOOOO====O++++O++++O++++O====O====O++++O++++O++++O++++XXX",
"XXX         ==== ++++ ++++ ++++ ==== ==== ++++ ++++ ++++ ++++XXX",
"XXX          ==   ++   ++   ++   ==   ==   ++   ++   ++   ++ XXX",
"XXX                                                          XXX",
"XXX                                                          XXX",
"XXX          ++   ++   ++   ++   ==   ==   ++   ++   ++   ++ XXX",
"XXX         ++++ ++++ ++++ ++++ ==== ==== ++++ ++++ ++++ ++++XXX",
"XXXOOOOOOOOO++++O++++O++++O++++O====O====O++++O++++O++++O++++XXX",
"XXXOOOOOOOOO++++O++++O++++O++++O====O====O++++O++++O++++O++++XXX",
"XXX         ++++ ++++ ++++ ++++ ==== ==== ++++ ++++ ++++ ++++XXX",
"XXX          ++   ++   ++   ++   ==   ==   ++   ++   ++   ++ XXX",
"XXX                                                          XXX",
"XXX                                                          XXX",
"XXX          ++   ++   ++   ++   ==   ==   ++   ++   ++   ++ XXX",
"XXX         ++++ ++++ ++++ ++++ ==== ==== ++++ ++++ ++++ ++++XXX",
"XXXOOOOOOOOO++++O++++O++++O++++O====O====O++++O++++O++++O++++XXX",
"XXXOOOOOOOOO++++O++++O++++O++++O====O====O++++O++++O++++O++++XXX",
"XXX         ++++ ++++ ++++ ++++ ==== ==== ++++ ++++ ++++ ++++XXX",
"XXX          ++   ++   ++   ++   ==   ==   ++   ++   ++   ++ XXX",
"XXX                                                          XXX",
"XXX                                                          XXX",
"XXX          ++   ++   ++   ++   ==   ==   ++   ++   ++   ++ XXX",
"XXX         ++++ ++++ ++++ ++++ ==== ==== ++++ ++++ ++++ ++++XXX",
"XXXOOOOOOOOO++++O++++O++++O++++O====O====O++++O++++O++++O++++XXX",
"XXXOOOOOOOOO++++O++++O++++O++++O====O====O++++O++++O++++O++++XXX",
"XXX         ++++ ++++ ++++ ++++ ==== ==== ++++ ++++ ++++ ++++XXX",
"XXX          ++   ++   ++   ++   ==   ==   ++   ++   ++   ++ XXX",
"XXX                                                          XXX",
"XXX                                                          XXX",
"XXX                                        ++   ==   ==   ++ XXX",
"XXX                                       ++++ ==== ==== ++++XXX",
"XXXOOOOOOOOOOOOOOOOOOOOOOOOOOOOOOOOOOOOOOO++++O====O====O++++XXX",
"XXXOOOOOOOOOOOOOOOOOOOOOOOOOOOOOOOOOOOOOOO++++O====O====O++++XXX",
"XXX                                       ++++ ==== ==== ++++XXX",
"XXX                                        ++   ==   ==   ++ XXX",
"XXX                                                          XXX",
"XXX                                                          XXX",
"XXX          ++   ++   ++   ++   ==   ==   ++   ++   ++   ++ XXX",
"XXX         ++++ ++++ ++++ ++++ ==== ==== ++++ ++++ ++++ ++++XXX",
"XXXOOOOOOOOO++++O++++O++++O++++O====O====O++++O++++O++++O++++XXX",
"XXXOOOOOOOOO++++O++++O++++O++++O====O====O++++O++++O++++O++++XXX",
"XXX         ++++ ++++ ++++ ++++ ==== ==== ++++ ++++ ++++ ++++XXX",
"XXX          ++   ++   ++   ++   ==   ==   ++   ++   ++   ++ XXX",
"XXX                                                          XXX",
"XXX                                                          XXX",
"XXX          ++   ++   ++   ++   ==   ==   ++   ++   ++   ++ XXX",
"XXX         ++++ ++++ ++++ ++++ ==== ==== ++++ ++++ ++++ ++++XXX",
"XXXOOOOOOOOO++++O++++O++++O++++O====O====O++++O++++O++++O++++XXX",
"XXXOOOOOOOOO++++O++++O++++O++++O====O====O++++O++++O++++O++++XXX",
"XXX         ++++ ++++ ++++ ++++ ==== ==== ++++ ++++ ++++ ++++XXX",
"XXX          ++   ++   ++   ++   ==   ==   ++   ++   ++   ++ XXX",
"XXX                                                          XXX",
"XXX                                                          XXX",
"XXXXXXXXXXXXXXXXXXXXXXXXXXXXXXXXXXXXXXXXXXXXXXXXXXXXXXXXXXXXXXXX",
"XXXXXXXXXXXXXXXXXXXXXXXXXXXXXXXXXXXXXXXXXXXXXXXXXXXXXXXXXXXXXXXX",
"XXXXXXXXXXXXXXXXXXXXXXXXXXXXXXXXXXXXXXXXXXXXXXXXXXXXXXXXXXXXXXXX"
};
