/* XPM */
static char *abacusme_64x64[] = {
/* width height ncolors chars_per_pixel */
"64 64 3 1",
/* colors */
"  c None",
"+ c #000000",
"X c #8B7E66",
/* pixels */
"XXXXXXXXXXXXXXXXXXXXXXXXXXXXXXXXXXXXXXXXXXXXXXXXXXXXXXXXXXXXXXXX",
"XXXXXXXXXXXXXXXXXXXXXXXXXXXXXXXXXXXXXXXXXXXXXXXXXXXXXXXXXXXXXXXX",
"XX                                                            XX",
"XX                                                            XX",
"XX                                                            XX",
"XX                                                            XX",
"XX                                                            XX",
"XX                                                            XX",
"XX                                                            XX",
"XX                                                            XX",
"XX                                                            XX",
"XX                                                            XX",
"XX                                                            XX",
"XX  ++++++++++++++++++++++++++++++++++++++++++++++++++++++++  XX",
"XX  ++++++++++++++++++++++++++++++++++++++++++++++++++++++++  XX",
"XX                                                            XX",
"XX                                                            XX",
"XX                                                            XX",
"XX                                                            XX",
"XX                                                            XX",
"XX                         ++      ++                         XX",
"XX                          ++    ++                          XX",
"XX                           ++  ++                           XX",
"XX                            ++++                            XX",
"XX  ++++++++++++++++++++++++++++++++++++++++++++++++++++++++  XX",
"XX  ++++++++++++++++++++++++++++++++++++++++++++++++++++++++  XX",
"XX                            ++++                            XX",
"XX                           ++  ++                           XX",
"XX                          ++    ++                          XX",
"XX                         ++      ++                         XX",
"XX                                                            XX",
"XX                                                            XX",
"XX                                                            XX",
"XX                                                            XX",
"XX  ++++++++++++++++++++++++++++++++++++++++++++++++++++++++  XX",
"XX  ++++++++++++++++++++++++++++++++++++++++++++++++++++++++  XX",
"XX                                                            XX",
"XX                                                            XX",
"XX                                                            XX",
"XX                                                            XX",
"XX                                                            XX",
"XX                                                            XX",
"XX                                                            XX",
"XX                                                            XX",
"XX  ++++++++++++++++++++++++++++++++++++++++++++++++++++++++  XX",
"XX  ++++++++++++++++++++++++++++++++++++++++++++++++++++++++  XX",
"XX                                                            XX",
"XX                                                            XX",
"XX                                                            XX",
"XX                                                            XX",
"XX                                                            XX",
"XX                                                            XX",
"XX                                                            XX",
"XX                                                            XX",
"XX  ++++++++++++++++++++++++++++++++++++++++++++++++++++++++  XX",
"XX  ++++++++++++++++++++++++++++++++++++++++++++++++++++++++  XX",
"XX                                                            XX",
"XX                                                            XX",
"XX                                                            XX",
"XX                                                            XX",
"XX                                                            XX",
"XX                                                            XX",
"XX                                                            XX",
"XXXXXXXXXXXXXXXXXXXXXXXXXXXXXXXXXXXXXXXXXXXXXXXXXXXXXXXXXXXXXXXX",
"XXXXXXXXXXXXXXXXXXXXXXXXXXXXXXXXXXXXXXXXXXXXXXXXXXXXXXXXXXXXXXXX"
};
