/* XPM */
static char *abacusma_64x64[] = {
/* width height num_colors chars_per_pixel */
"    64    64        4            1",
/* colors */
"  c None",
"+ c #8B0000",
"X c #8B7E66",
"o c #FFD700",
/* pixels */
"XXXXXXXXXXXXXXXXXXXXXXXXXXXXXXXXXXXXXXXXXXXXXXXXXXXXXXXXXXXXXXXX",
"XXXXXXXXXXXXXXXXXXXXXXXXXXXXXXXXXXXXXXXXXXXXXXXXXXXXXXXXXXXXXXXX",
"XXXXXXXXXXXXXXXXXXXXXXXXXXXXXXXXXXXXXXXXXXXXXXXXXXXXXXXXXXXXXXXX",
"XXX                               XX                         XXX",
"XXX  +     +     +     +          XX          +     +     +  XXX",
"XXX +++   +++   +++   +++         XX         +++   +++   +++ XXX",
"XXX+++++ +++++ +++++ +++++        XX        +++++ +++++ +++++XXX",
"XXX+++++o+++++o+++++o+++++ooooooooXXoooooooo+++++o+++++o+++++XXX",
"XXX+++++o+++++o+++++o+++++ooooooooXXoooooooo+++++o+++++o+++++XXX",
"XXX+++++ +++++ +++++ +++++        XX        +++++ +++++ +++++XXX",
"XXX +++   +++   +++   +++         XX         +++   +++   +++ XXX",
"XXX  +     +     +     +          XX          +     +     +  XXX",
"XXX  +     +     +     +          XX          +     +     +  XXX",
"XXX +++   +++   +++   +++         XX         +++   +++   +++ XXX",
"XXX+++++ +++++ +++++ +++++        XX        +++++ +++++ +++++XXX",
"XXX+++++o+++++o+++++o+++++ooooooooXXoooooooo+++++o+++++o+++++XXX",
"XXX+++++o+++++o+++++o+++++ooooooooXXoooooooo+++++o+++++o+++++XXX",
"XXX+++++ +++++ +++++ +++++        XX        +++++ +++++ +++++XXX",
"XXX +++   +++   +++   +++         XX         +++   +++   +++ XXX",
"XXX  +     +     +     +          XX          +     +     +  XXX",
"XXX  +     +     +     +          XX          +     +     +  XXX",
"XXX +++   +++   +++   +++         XX         +++   +++   +++ XXX",
"XXX+++++ +++++ +++++ +++++        XX        +++++ +++++ +++++XXX",
"XXX+++++o+++++o+++++o+++++ooooooooXXoooooooo+++++o+++++o+++++XXX",
"XXX+++++o+++++o+++++o+++++ooooooooXXoooooooo+++++o+++++o+++++XXX",
"XXX+++++ +++++ +++++ +++++        XX        +++++ +++++ +++++XXX",
"XXX +++   +++   +++   +++         XX         +++   +++   +++ XXX",
"XXX  +     +     +     +          XX          +     +     +  XXX",
"XXX  +     +     +     +          XX          +     +     +  XXX",
"XXX +++   +++   +++   +++         XX         +++   +++   +++ XXX",
"XXX+++++ +++++ +++++ +++++        XX        +++++ +++++ +++++XXX",
"XXX+++++o+++++o+++++o+++++ooooooooXXoooooooo+++++o+++++o+++++XXX",
"XXX+++++o+++++o+++++o+++++ooooooooXXoooooooo+++++o+++++o+++++XXX",
"XXX+++++ +++++ +++++ +++++        XX        +++++ +++++ +++++XXX",
"XXX +++   +++   +++   +++         XX         +++   +++   +++ XXX",
"XXX  +     +     +     +          XX          +     +     +  XXX",
"XXX  +     +     +     +          XX          +     +     +  XXX",
"XXX +++   +++   +++   +++         XX         +++   +++   +++ XXX",
"XXX+++++ +++++ +++++ +++++        XX        +++++ +++++ +++++XXX",
"XXX+++++o+++++o+++++o+++++ooooooooXXoooooooo+++++o+++++o+++++XXX",
"XXX+++++o+++++o+++++o+++++ooooooooXXoooooooo+++++o+++++o+++++XXX",
"XXX+++++ +++++ +++++ +++++        XX        +++++ +++++ +++++XXX",
"XXX +++   +++   +++   +++         XX         +++   +++   +++ XXX",
"XXX  +     +     +     +          XX          +     +     +  XXX",
"XXX  +     +     +     +          XX          +     +     +  XXX",
"XXX +++   +++   +++   +++         XX         +++   +++   +++ XXX",
"XXX+++++ +++++ +++++ +++++        XX        +++++ +++++ +++++XXX",
"XXX+++++o+++++o+++++o+++++ooooooooXXoooooooo+++++o+++++o+++++XXX",
"XXX+++++o+++++o+++++o+++++ooooooooXXoooooooo+++++o+++++o+++++XXX",
"XXX+++++ +++++ +++++ +++++        XX        +++++ +++++ +++++XXX",
"XXX +++   +++   +++   +++         XX         +++   +++   +++ XXX",
"XXX  +     +     +     +          XX          +     +     +  XXX",
"XXX  +     +     +     +          XX          +     +     +  XXX",
"XXX +++   +++   +++   +++         XX         +++   +++   +++ XXX",
"XXX+++++ +++++ +++++ +++++        XX        +++++ +++++ +++++XXX",
"XXX+++++o+++++o+++++o+++++ooooooooXXoooooooo+++++o+++++o+++++XXX",
"XXX+++++o+++++o+++++o+++++ooooooooXXoooooooo+++++o+++++o+++++XXX",
"XXX+++++ +++++ +++++ +++++        XX        +++++ +++++ +++++XXX",
"XXX +++   +++   +++   +++         XX         +++   +++   +++ XXX",
"XXX  +     +     +     +          XX          +     +     +  XXX",
"XXX                               XX                         XXX",
"XXXXXXXXXXXXXXXXXXXXXXXXXXXXXXXXXXXXXXXXXXXXXXXXXXXXXXXXXXXXXXXX",
"XXXXXXXXXXXXXXXXXXXXXXXXXXXXXXXXXXXXXXXXXXXXXXXXXXXXXXXXXXXXXXXX",
"XXXXXXXXXXXXXXXXXXXXXXXXXXXXXXXXXXXXXXXXXXXXXXXXXXXXXXXXXXXXXXXX"
};
