/* XPM */
static char *abacusdk_64x64[] = {
/* width height ncolors chars_per_pixel */
"64 64 5 1",
/* colors */
"  c None",
"+ c #8B0000",
"X c #8B7E66",
"O c #CAE1FF",
"- c #8B7355",
/* pixels */
"XXXXXXXXXXXXXXXXXXXXXXXXXXXXXXXXXXXXXXXXXXXXXXXXXXXXXXXXXXXXXXXX",
"XXXXXXXXXXXXXXXXXXXXXXXXXXXXXXXXXXXXXXXXXXXXXXXXXXXXXXXXXXXXXXXX",
"XXXXXXXXXXXXXXXXXXXXXXXXXXXXXXXXXXXXXXXXXXXXXXXXXXXXXXXXXXXXXXXX",
"XXX                                                          XXX",
"XXX                                                          XXX",
"XXX ++   ++   ++   ++   ++   --   --   --   --   --          XXX",
"XXX++++ ++++ ++++ ++++ ++++ ---- ---- ---- ---- ----         XXX",
"XXX++++O++++O++++O++++O++++O----O----O----O----O----OOOOOOOOOXXX",
"XXX++++O++++O++++O++++O++++O----O----O----O----O----OOOOOOOOOXXX",
"XXX++++ ++++ ++++ ++++ ++++ ---- ---- ---- ---- ----         XXX",
"XXX ++   ++   ++   ++   ++   --   --   --   --   --          XXX",
"XXX                                                          XXX",
"XXX                                                          XXX",
"XXX ++   ++   ++   ++   ++   --   --   --   --   --          XXX",
"XXX++++ ++++ ++++ ++++ ++++ ---- ---- ---- ---- ----         XXX",
"XXX++++O++++O++++O++++O++++O----O----O----O----O----OOOOOOOOOXXX",
"XXX++++O++++O++++O++++O++++O----O----O----O----O----OOOOOOOOOXXX",
"XXX++++ ++++ ++++ ++++ ++++ ---- ---- ---- ---- ----         XXX",
"XXX ++   ++   ++   ++   ++   --   --   --   --   --          XXX",
"XXX                                                          XXX",
"XXX                                                          XXX",
"XXX ++   ++   ++   ++   ++   --   --   --   --   --          XXX",
"XXX++++ ++++ ++++ ++++ ++++ ---- ---- ---- ---- ----         XXX",
"XXX++++O++++O++++O++++O++++O----O----O----O----O----OOOOOOOOOXXX",
"XXX++++O++++O++++O++++O++++O----O----O----O----O----OOOOOOOOOXXX",
"XXX++++ ++++ ++++ ++++ ++++ ---- ---- ---- ---- ----         XXX",
"XXX ++   ++   ++   ++   ++   --   --   --   --   --          XXX",
"XXX                                                          XXX",
"XXX                                                          XXX",
"XXX ++   ++   ++   ++   ++   --   --   --   --   --          XXX",
"XXX++++ ++++ ++++ ++++ ++++ ---- ---- ---- ---- ----         XXX",
"XXX++++O++++O++++O++++O++++O----O----O----O----O----OOOOOOOOOXXX",
"XXX++++O++++O++++O++++O++++O----O----O----O----O----OOOOOOOOOXXX",
"XXX++++ ++++ ++++ ++++ ++++ ---- ---- ---- ---- ----         XXX",
"XXX ++   ++   ++   ++   ++   --   --   --   --   --          XXX",
"XXX                                                          XXX",
"XXX                                                          XXX",
"XXX ++   ++   ++   ++   ++   --   --   --   --   --          XXX",
"XXX++++ ++++ ++++ ++++ ++++ ---- ---- ---- ---- ----         XXX",
"XXX++++O++++O++++O++++O++++O----O----O----O----O----OOOOOOOOOXXX",
"XXX++++O++++O++++O++++O++++O----O----O----O----O----OOOOOOOOOXXX",
"XXX++++ ++++ ++++ ++++ ++++ ---- ---- ---- ---- ----         XXX",
"XXX ++   ++   ++   ++   ++   --   --   --   --   --          XXX",
"XXX                                                          XXX",
"XXX                                                          XXX",
"XXX ++   ++   ++   ++   ++   --   --   --   --   --          XXX",
"XXX++++ ++++ ++++ ++++ ++++ ---- ---- ---- ---- ----         XXX",
"XXX++++O++++O++++O++++O++++O----O----O----O----O----OOOOOOOOOXXX",
"XXX++++O++++O++++O++++O++++O----O----O----O----O----OOOOOOOOOXXX",
"XXX++++ ++++ ++++ ++++ ++++ ---- ---- ---- ---- ----         XXX",
"XXX ++   ++   ++   ++   ++   --   --   --   --   --          XXX",
"XXX                                                          XXX",
"XXX                                                          XXX",
"XXX ++   ++   ++   ++   ++   --   --   --   --   --          XXX",
"XXX++++ ++++ ++++ ++++ ++++ ---- ---- ---- ---- ----         XXX",
"XXX++++O++++O++++O++++O++++O----O----O----O----O----OOOOOOOOOXXX",
"XXX++++O++++O++++O++++O++++O----O----O----O----O----OOOOOOOOOXXX",
"XXX++++ ++++ ++++ ++++ ++++ ---- ---- ---- ---- ----         XXX",
"XXX ++   ++   ++   ++   ++   --   --   --   --   --          XXX",
"XXX                                                          XXX",
"XXX                                                          XXX",
"XXXXXXXXXXXXXXXXXXXXXXXXXXXXXXXXXXXXXXXXXXXXXXXXXXXXXXXXXXXXXXXX",
"XXXXXXXXXXXXXXXXXXXXXXXXXXXXXXXXXXXXXXXXXXXXXXXXXXXXXXXXXXXXXXXX",
"XXXXXXXXXXXXXXXXXXXXXXXXXXXXXXXXXXXXXXXXXXXXXXXXXXXXXXXXXXXXXXXX"
};
