/* XPM */
static char *abacusma_64x64[] = {
/* width height ncolors chars_per_pixel */
"64 64 4 1",
/* colors */
"  c None",
"+ c #8B0000",
"X c #8B7E66",
"o c #FFD700",
/* pixels */
"XXXXXXXXXXXXXXXXXXXXXXXXXXXXXXXXXXXXXXXXXXXXXXXXXXXXXXXXXXXXXXXX",
"XXXXXXXXXXXXXXXXXXXXXXXXXXXXXXXXXXXXXXXXXXXXXXXXXXXXXXXXXXXXXXXX",
"XXXXXXXXXXXXXXXXXXXXXXXXXXXXXXXXXXXXXXXXXXXXXXXXXXXXXXXXXXXXXXXX",
"XXX   ++++    ++++    ++++    ++++    ++++    ++++    ++++   XXX",
"XXX  ++++++  ++++++  ++++++  ++++++  ++++++  ++++++  ++++++  XXX",
"XXX ++++++++++++++++++++++++++++++++++++++++++++++++++++++++ XXX",
"XXX  ++++++  ++++++  ++++++  ++++++  ++++++  ++++++  ++++++  XXX",
"XXX   ++++    ++++    ++++    ++++    ++++    ++++    ++++   XXX",
"XXX    oo      oo      oo      oo      oo      oo      oo    XXX",
"XXX   ++++    ++++    ++++    ++++    ++++    ++++    ++++   XXX",
"XXX  ++++++  ++++++  ++++++  ++++++  ++++++  ++++++  ++++++  XXX",
"XXX ++++++++++++++++++++++++++++++++++++++++++++++++++++++++ XXX",
"XXX  ++++++  ++++++  ++++++  ++++++  ++++++  ++++++  ++++++  XXX",
"XXX   ++++    ++++    ++++    ++++    ++++    ++++    ++++   XXX",
"XXX    oo      oo      oo      oo      oo      oo      oo    XXX",
"XXX   ++++    ++++    ++++    ++++    ++++    ++++    ++++   XXX",
"XXX  ++++++  ++++++  ++++++  ++++++  ++++++  ++++++  ++++++  XXX",
"XXX ++++++++++++++++++++++++++++++++++++++++++++++++++++++++ XXX",
"XXX  ++++++  ++++++  ++++++  ++++++  ++++++  ++++++  ++++++  XXX",
"XXX   ++++    ++++    ++++    ++++    ++++    ++++    ++++   XXX",
"XXX    oo      oo      oo      oo      oo      oo      oo    XXX",
"XXX    oo      oo      oo      oo      oo      oo      oo    XXX",
"XXX    oo      oo      oo      oo      oo      oo      oo    XXX",
"XXX    oo      oo      oo      oo      oo      oo      oo    XXX",
"XXX    oo      oo      oo      oo      oo      oo      oo    XXX",
"XXX    oo      oo      oo      oo      oo      oo      oo    XXX",
"XXX    oo      oo      oo      oo      oo      oo      oo    XXX",
"XXX    oo      oo      oo      oo      oo      oo      oo    XXX",
"XXX    oo      oo      oo      oo      oo      oo      oo    XXX",
"XXX    oo      oo      oo      oo      oo      oo      oo    XXX",
"XXX    oo      oo      oo      oo      oo      oo      oo    XXX",
"XXXXXXXXXXXXXXXXXXXXXXXXXXXXXXXXXXXXXXXXXXXXXXXXXXXXXXXXXXXXXXXX",
"XXXXXXXXXXXXXXXXXXXXXXXXXXXXXXXXXXXXXXXXXXXXXXXXXXXXXXXXXXXXXXXX",
"XXX    oo      oo      oo      oo      oo      oo      oo    XXX",
"XXX    oo      oo      oo      oo      oo      oo      oo    XXX",
"XXX    oo      oo      oo      oo      oo      oo      oo    XXX",
"XXX    oo      oo      oo      oo      oo      oo      oo    XXX",
"XXX    oo      oo      oo      oo      oo      oo      oo    XXX",
"XXX    oo      oo      oo      oo      oo      oo      oo    XXX",
"XXX    oo      oo      oo      oo      oo      oo      oo    XXX",
"XXX    oo      oo      oo      oo      oo      oo      oo    XXX",
"XXX    oo      oo      oo      oo      oo      oo      oo    XXX",
"XXX    oo      oo      oo      oo      oo      oo      oo    XXX",
"XXX    oo      oo      oo      oo      oo      oo      oo    XXX",
"XXX   ++++    ++++    ++++    ++++    ++++    ++++    ++++   XXX",
"XXX  ++++++  ++++++  ++++++  ++++++  ++++++  ++++++  ++++++  XXX",
"XXX ++++++++++++++++++++++++++++++++++++++++++++++++++++++++ XXX",
"XXX  ++++++  ++++++  ++++++  ++++++  ++++++  ++++++  ++++++  XXX",
"XXX   ++++    ++++    ++++    ++++    ++++    ++++    ++++   XXX",
"XXX    oo      oo      oo      oo      oo      oo      oo    XXX",
"XXX   ++++    ++++    ++++    ++++    ++++    ++++    ++++   XXX",
"XXX  ++++++  ++++++  ++++++  ++++++  ++++++  ++++++  ++++++  XXX",
"XXX ++++++++++++++++++++++++++++++++++++++++++++++++++++++++ XXX",
"XXX  ++++++  ++++++  ++++++  ++++++  ++++++  ++++++  ++++++  XXX",
"XXX   ++++    ++++    ++++    ++++    ++++    ++++    ++++   XXX",
"XXX    oo      oo      oo      oo      oo      oo      oo    XXX",
"XXX   ++++    ++++    ++++    ++++    ++++    ++++    ++++   XXX",
"XXX  ++++++  ++++++  ++++++  ++++++  ++++++  ++++++  ++++++  XXX",
"XXX ++++++++++++++++++++++++++++++++++++++++++++++++++++++++ XXX",
"XXX  ++++++  ++++++  ++++++  ++++++  ++++++  ++++++  ++++++  XXX",
"XXX   ++++    ++++    ++++    ++++    ++++    ++++    ++++   XXX",
"XXXXXXXXXXXXXXXXXXXXXXXXXXXXXXXXXXXXXXXXXXXXXXXXXXXXXXXXXXXXXXXX",
"XXXXXXXXXXXXXXXXXXXXXXXXXXXXXXXXXXXXXXXXXXXXXXXXXXXXXXXXXXXXXXXX",
"XXXXXXXXXXXXXXXXXXXXXXXXXXXXXXXXXXXXXXXXXXXXXXXXXXXXXXXXXXXXXXXX"
};
