/* XPM */
static char *abacus_36x36[] = {
/* width height ncolors chars_per_pixel */
"36 36 4 1",
/* colors */
"  c None",
"+ c #8B0000",
"X c #8B7E66",
"o c #FFD700",
/* pixels */
"XXXXXXXXXXXXXXXXXXXXXXXXXXXXXXXXXXXX",
"XXXXXXXXXXXXXXXXXXXXXXXXXXXXXXXXXXXX",
"XX    +++    +++    +++    +++    XX",
"XX   +++++  +++++  +++++  +++++   XX",
"XX   +++++  +++++  +++++  +++++   XX",
"XX    +++    +++    +++    +++    XX",
"XX     o      o      o      o     XX",
"XX     o      o      o      o     XX",
"XX     o      o      o      o     XX",
"XX     o      o      o      o     XX",
"XX     o      o      o      o     XX",
"XXXXXXXXXXXXXXXXXXXXXXXXXXXXXXXXXXXX",
"XXXXXXXXXXXXXXXXXXXXXXXXXXXXXXXXXXXX",
"XX     o      o      o      o     XX",
"XX     o      o      o      o     XX",
"XX     o      o      o      o     XX",
"XX     o      o      o      o     XX",
"XX     o      o      o      o     XX",
"XX    +++    +++    +++    +++    XX",
"XX   +++++  +++++  +++++  +++++   XX",
"XX   +++++  +++++  +++++  +++++   XX",
"XX    +++    +++    +++    +++    XX",
"XX    +++    +++    +++    +++    XX",
"XX   +++++  +++++  +++++  +++++   XX",
"XX   +++++  +++++  +++++  +++++   XX",
"XX    +++    +++    +++    +++    XX",
"XX    +++    +++    +++    +++    XX",
"XX   +++++  +++++  +++++  +++++   XX",
"XX   +++++  +++++  +++++  +++++   XX",
"XX    +++    +++    +++    +++    XX",
"XX    +++    +++    +++    +++    XX",
"XX   +++++  +++++  +++++  +++++   XX",
"XX   +++++  +++++  +++++  +++++   XX",
"XX    +++    +++    +++    +++    XX",
"XXXXXXXXXXXXXXXXXXXXXXXXXXXXXXXXXXXX",
"XXXXXXXXXXXXXXXXXXXXXXXXXXXXXXXXXXXX"
};
