/* XPM */
static char *abacus_72x72[] = {
/* width height ncolors chars_per_pixel */
"72 72 4 1",
/* colors */
"  c None",
"+ c #8B0000",
"X c #8B7E66",
"o c #FFD700",
/* pixels */
"XXXXXXXXXXXXXXXXXXXXXXXXXXXXXXXXXXXXXXXXXXXXXXXXXXXXXXXXXXXXXXXXXXXXXXXX",
"XXXXXXXXXXXXXXXXXXXXXXXXXXXXXXXXXXXXXXXXXXXXXXXXXXXXXXXXXXXXXXXXXXXXXXXX",
"XXXXXXXXXXXXXXXXXXXXXXXXXXXXXXXXXXXXXXXXXXXXXXXXXXXXXXXXXXXXXXXXXXXXXXXX",
"XXX   ++++    ++++    ++++    ++++    ++++    ++++    ++++    ++++   XXX",
"XXX  ++++++  ++++++  ++++++  ++++++  ++++++  ++++++  ++++++  ++++++  XXX",
"XXX  ++++++  ++++++  ++++++  ++++++  ++++++  ++++++  ++++++  ++++++  XXX",
"XXX  ++++++  ++++++  ++++++  ++++++  ++++++  ++++++  ++++++  ++++++  XXX",
"XXX   ++++    ++++    ++++    ++++    ++++    ++++    ++++    ++++   XXX",
"XXX    oo      oo      oo      oo      oo      oo      oo      oo    XXX",
"XXX   ++++    ++++    ++++    ++++    ++++    ++++    ++++    ++++   XXX",
"XXX  ++++++  ++++++  ++++++  ++++++  ++++++  ++++++  ++++++  ++++++  XXX",
"XXX  ++++++  ++++++  ++++++  ++++++  ++++++  ++++++  ++++++  ++++++  XXX",
"XXX  ++++++  ++++++  ++++++  ++++++  ++++++  ++++++  ++++++  ++++++  XXX",
"XXX   ++++    ++++    ++++    ++++    ++++    ++++    ++++    ++++   XXX",
"XXX    oo      oo      oo      oo      oo      oo      oo      oo    XXX",
"XXX    oo      oo      oo      oo      oo      oo      oo      oo    XXX",
"XXX    oo      oo      oo      oo      oo      oo      oo      oo    XXX",
"XXX    oo      oo      oo      oo      oo      oo      oo      oo    XXX",
"XXX    oo      oo      oo      oo      oo      oo      oo      oo    XXX",
"XXX    oo      oo      oo      oo      oo      oo      oo      oo    XXX",
"XXX    oo      oo      oo      oo      oo      oo      oo      oo    XXX",
"XXX    oo      oo      oo      oo      oo      oo      oo      oo    XXX",
"XXX    oo      oo      oo      oo      oo      oo      oo      oo    XXX",
"XXX    oo      oo      oo      oo      oo      oo      oo      oo    XXX",
"XXX    oo      oo      oo      oo      oo      oo      oo      oo    XXX",
"XXX    oo      oo      oo      oo      oo      oo      oo      oo    XXX",
"XXXXXXXXXXXXXXXXXXXXXXXXXXXXXXXXXXXXXXXXXXXXXXXXXXXXXXXXXXXXXXXXXXXXXXXX",
"XXXXXXXXXXXXXXXXXXXXXXXXXXXXXXXXXXXXXXXXXXXXXXXXXXXXXXXXXXXXXXXXXXXXXXXX",
"XXX    oo      oo      oo      oo      oo      oo      oo      oo    XXX",
"XXX    oo      oo      oo      oo      oo      oo      oo      oo    XXX",
"XXX    oo      oo      oo      oo      oo      oo      oo      oo    XXX",
"XXX    oo      oo      oo      oo      oo      oo      oo      oo    XXX",
"XXX    oo      oo      oo      oo      oo      oo      oo      oo    XXX",
"XXX    oo      oo      oo      oo      oo      oo      oo      oo    XXX",
"XXX    oo      oo      oo      oo      oo      oo      oo      oo    XXX",
"XXX    oo      oo      oo      oo      oo      oo      oo      oo    XXX",
"XXX    oo      oo      oo      oo      oo      oo      oo      oo    XXX",
"XXX    oo      oo      oo      oo      oo      oo      oo      oo    XXX",
"XXX    oo      oo      oo      oo      oo      oo      oo      oo    XXX",
"XXX    oo      oo      oo      oo      oo      oo      oo      oo    XXX",
"XXX   ++++    ++++    ++++    ++++    ++++    ++++    ++++    ++++   XXX",
"XXX  ++++++  ++++++  ++++++  ++++++  ++++++  ++++++  ++++++  ++++++  XXX",
"XXX  ++++++  ++++++  ++++++  ++++++  ++++++  ++++++  ++++++  ++++++  XXX",
"XXX  ++++++  ++++++  ++++++  ++++++  ++++++  ++++++  ++++++  ++++++  XXX",
"XXX   ++++    ++++    ++++    ++++    ++++    ++++    ++++    ++++   XXX",
"XXX    oo      oo      oo      oo      oo      oo      oo      oo    XXX",
"XXX   ++++    ++++    ++++    ++++    ++++    ++++    ++++    ++++   XXX",
"XXX  ++++++  ++++++  ++++++  ++++++  ++++++  ++++++  ++++++  ++++++  XXX",
"XXX  ++++++  ++++++  ++++++  ++++++  ++++++  ++++++  ++++++  ++++++  XXX",
"XXX  ++++++  ++++++  ++++++  ++++++  ++++++  ++++++  ++++++  ++++++  XXX",
"XXX   ++++    ++++    ++++    ++++    ++++    ++++    ++++    ++++   XXX",
"XXX    oo      oo      oo      oo      oo      oo      oo      oo    XXX",
"XXX   ++++    ++++    ++++    ++++    ++++    ++++    ++++    ++++   XXX",
"XXX  ++++++  ++++++  ++++++  ++++++  ++++++  ++++++  ++++++  ++++++  XXX",
"XXX  ++++++  ++++++  ++++++  ++++++  ++++++  ++++++  ++++++  ++++++  XXX",
"XXX  ++++++  ++++++  ++++++  ++++++  ++++++  ++++++  ++++++  ++++++  XXX",
"XXX   ++++    ++++    ++++    ++++    ++++    ++++    ++++    ++++   XXX",
"XXX    oo      oo      oo      oo      oo      oo      oo      oo    XXX",
"XXX   ++++    ++++    ++++    ++++    ++++    ++++    ++++    ++++   XXX",
"XXX  ++++++  ++++++  ++++++  ++++++  ++++++  ++++++  ++++++  ++++++  XXX",
"XXX  ++++++  ++++++  ++++++  ++++++  ++++++  ++++++  ++++++  ++++++  XXX",
"XXX  ++++++  ++++++  ++++++  ++++++  ++++++  ++++++  ++++++  ++++++  XXX",
"XXX   ++++    ++++    ++++    ++++    ++++    ++++    ++++    ++++   XXX",
"XXX    oo      oo      oo      oo      oo      oo      oo      oo    XXX",
"XXX   ++++    ++++    ++++    ++++    ++++    ++++    ++++    ++++   XXX",
"XXX  ++++++  ++++++  ++++++  ++++++  ++++++  ++++++  ++++++  ++++++  XXX",
"XXX  ++++++  ++++++  ++++++  ++++++  ++++++  ++++++  ++++++  ++++++  XXX",
"XXX  ++++++  ++++++  ++++++  ++++++  ++++++  ++++++  ++++++  ++++++  XXX",
"XXX   ++++    ++++    ++++    ++++    ++++    ++++    ++++    ++++   XXX",
"XXXXXXXXXXXXXXXXXXXXXXXXXXXXXXXXXXXXXXXXXXXXXXXXXXXXXXXXXXXXXXXXXXXXXXXX",
"XXXXXXXXXXXXXXXXXXXXXXXXXXXXXXXXXXXXXXXXXXXXXXXXXXXXXXXXXXXXXXXXXXXXXXXX",
"XXXXXXXXXXXXXXXXXXXXXXXXXXXXXXXXXXXXXXXXXXXXXXXXXXXXXXXXXXXXXXXXXXXXXXXX"
};
