/* XPM */
static char *abacus_22x22[] = {
/* width height ncolors chars_per_pixel */
"22 22 4 1",
/* colors */
"  c None",
"+ c #8B0000",
"X c #8B7E66",
"o c #FFD700",
/* pixels */
"XXXXXXXXXXXXXXXXXXXXXX",
"X  +    +    +    +  X",
"X +++  +++  +++  +++ X",
"X  +    +    +    +  X",
"X  o    o    o    o  X",
"X  o    o    o    o  X",
"XXXXXXXXXXXXXXXXXXXXXX",
"X  o    o    o    o  X",
"X  o    o    o    o  X",
"X  +    +    +    +  X",
"X +++  +++  +++  +++ X",
"X  +    +    +    +  X",
"X  +    +    +    +  X",
"X +++  +++  +++  +++ X",
"X  +    +    +    +  X",
"X  +    +    +    +  X",
"X +++  +++  +++  +++ X",
"X  +    +    +    +  X",
"X  +    +    +    +  X",
"X +++  +++  +++  +++ X",
"X  +    +    +    +  X",
"XXXXXXXXXXXXXXXXXXXXXX"
};
