/* XPM */
static char *abacusme_32x32[] = {
/* width height ncolors chars_per_pixel */
"32 32 3 1",
/* colors */
"  c None",
"+ c #000000",
"X c #8B7E66",
/* pixels */
"XXXXXXXXXXXXXXXXXXXXXXXXXXXXXXXX",
"X                              X",
"X                              X",
"X                              X",
"X ++++++++++++++++++++++++++++ X",
"X                              X",
"X                              X",
"X            ++  ++            X",
"X             ++++             X",
"X ++++++++++++++++++++++++++++ X",
"X             ++++             X",
"X            ++  ++            X",
"X                              X",
"X                              X",
"X ++++++++++++++++++++++++++++ X",
"X                              X",
"X                              X",
"X                              X",
"X                              X",
"X ++++++++++++++++++++++++++++ X",
"X                              X",
"X                              X",
"X                              X",
"X                              X",
"X ++++++++++++++++++++++++++++ X",
"X                              X",
"X                              X",
"X                              X",
"X                              X",
"X ++++++++++++++++++++++++++++ X",
"X                              X",
"XXXXXXXXXXXXXXXXXXXXXXXXXXXXXXXX"
};
