/* XPM */
static char *abacusru_32x32[] = {
/* width height ncolors chars_per_pixel */
"32 32 5 1",
/* colors */
"  c None",
"+ c #8B0000",
"= c #600000",
"X c #8B7E66",
"O c #CAE1FF",
/* pixels */
"XXXXXXXXXXXXXXXXXXXXXXXXXXXXXXXX",
"X                              X",
"X                              X",
"X       ==  ++  ==  ==  ++  ++ X",
"X      ====++++========++++++++X",
"XOOOOOO====++++========++++++++X",
"X      ====++++========++++++++X",
"X       ==  ++  ==  ==  ++  ++ X",
"X                              X",
"X                              X",
"X       ++  ++  ==  ==  ++  ++ X",
"X      ++++++++========++++++++X",
"XOOOOOO++++++++========++++++++X",
"X      ++++++++========++++++++X",
"X       ++  ++  ==  ==  ++  ++ X",
"X                              X",
"X                              X",
"X       ++  ++  ==  ==  ++  ++ X",
"X      ++++++++========++++++++X",
"XOOOOOO++++++++========++++++++X",
"X      ++++++++========++++++++X",
"X       ++  ++  ==  ==  ++  ++ X",
"X                              X",
"X                              X",
"X       ++  ++  ==  ==  ++  ++ X",
"X      ++++++++========++++++++X",
"XOOOOOO++++++++========++++++++X",
"X      ++++++++========++++++++X",
"X       ++  ++  ==  ==  ++  ++ X",
"X                              X",
"X                              X",
"XXXXXXXXXXXXXXXXXXXXXXXXXXXXXXXX"
};
