/* XPM */
static char *abacus_96x96[] = {
/* width height ncolors chars_per_pixel */
"96 96 4 1",
/* colors */
"  c None",
"+ c #8B0000",
"X c #8B7E66",
"o c #FFD700",
/* pixels */
" XXXXXXXXXXXXXXXXXXXXXXXXXXXXXXXXXXXXXXXXXXXXXXXXXXXXXXXXXXXXXXXXXXXXXXXXXXXXXXXXXXXXXXXXXXXXXX ",
"XXXXXXXXXXXXXXXXXXXXXXXXXXXXXXXXXXXXXXXXXXXXXXXXXXXXXXXXXXXXXXXXXXXXXXXXXXXXXXXXXXXXXXXXXXXXXXXX",
"XXXXXXXXXXXXXXXXXXXXXXXXXXXXXXXXXXXXXXXXXXXXXXXXXXXXXXXXXXXXXXXXXXXXXXXXXXXXXXXXXXXXXXXXXXXXXXXX",
"XXXXXXXXXXXXXXXXXXXXXXXXXXXXXXXXXXXXXXXXXXXXXXXXXXXXXXXXXXXXXXXXXXXXXXXXXXXXXXXXXXXXXXXXXXXXXXXX",
"XXXXXXXXXXXXXXXXXXXXXXXXXXXXXXXXXXXXXXXXXXXXXXXXXXXXXXXXXXXXXXXXXXXXXXXXXXXXXXXXXXXXXXXXXXXXXXXX",
"XXXXXXXXXXXXXXXXXXXXXXXXXXXXXXXXXXXXXXXXXXXXXXXXXXXXXXXXXXXXXXXXXXXXXXXXXXXXXXXXXXXXXXXXXXXXXXXX",
"XXXXXX      ++++++     ++++++     ++++++     ++++++     ++++++     ++++++     ++++++      XXXXXX",
"XXXXXX     ++++++++   ++++++++   ++++++++   ++++++++   ++++++++   ++++++++   ++++++++     XXXXXX",
"XXXXXX     ++++++++   ++++++++   ++++++++   ++++++++   ++++++++   ++++++++   ++++++++     XXXXXX",
"XXXXXX     ++++++++   ++++++++   ++++++++   ++++++++   ++++++++   ++++++++   ++++++++     XXXXXX",
"XXXXXX     ++++++++   ++++++++   ++++++++   ++++++++   ++++++++   ++++++++   ++++++++     XXXXXX",
"XXXXXX     ++++++++   ++++++++   ++++++++   ++++++++   ++++++++   ++++++++   ++++++++     XXXXXX",
"XXXXXX      ++++++     ++++++     ++++++     ++++++     ++++++     ++++++     ++++++      XXXXXX",
"XXXXXX        oo         oo         oo         oo         oo         oo         oo        XXXXXX",
"XXXXXX      ++++++     ++++++     ++++++     ++++++     ++++++     ++++++     ++++++      XXXXXX",
"XXXXXX     ++++++++   ++++++++   ++++++++   ++++++++   ++++++++   ++++++++   ++++++++     XXXXXX",
"XXXXXX     ++++++++   ++++++++   ++++++++   ++++++++   ++++++++   ++++++++   ++++++++     XXXXXX",
"XXXXXX     ++++++++   ++++++++   ++++++++   ++++++++   ++++++++   ++++++++   ++++++++     XXXXXX",
"XXXXXX     ++++++++   ++++++++   ++++++++   ++++++++   ++++++++   ++++++++   ++++++++     XXXXXX",
"XXXXXX     ++++++++   ++++++++   ++++++++   ++++++++   ++++++++   ++++++++   ++++++++     XXXXXX",
"XXXXXX      ++++++     ++++++     ++++++     ++++++     ++++++     ++++++     ++++++      XXXXXX",
"XXXXXX        oo         oo         oo         oo         oo         oo         oo        XXXXXX",
"XXXXXX        oo         oo         oo         oo         oo         oo         oo        XXXXXX",
"XXXXXX        oo         oo         oo         oo         oo         oo         oo        XXXXXX",
"XXXXXX        oo         oo         oo         oo         oo         oo         oo        XXXXXX",
"XXXXXX        oo         oo         oo         oo         oo         oo         oo        XXXXXX",
"XXXXXX        oo         oo         oo         oo         oo         oo         oo        XXXXXX",
"XXXXXX        oo         oo         oo         oo         oo         oo         oo        XXXXXX",
"XXXXXX        oo         oo         oo         oo         oo         oo         oo        XXXXXX",
"XXXXXX        oo         oo         oo         oo         oo         oo         oo        XXXXXX",
"XXXXXX        oo         oo         oo         oo         oo         oo         oo        XXXXXX",
"XXXXXX        oo         oo         oo         oo         oo         oo         oo        XXXXXX",
"XXXXXX        oo         oo         oo         oo         oo         oo         oo        XXXXXX",
"XXXXXX        oo         oo         oo         oo         oo         oo         oo        XXXXXX",
"XXXXXXXXXXXXXXXXXXXXXXXXXXXXXXXXXXXXXXXXXXXXXXXXXXXXXXXXXXXXXXXXXXXXXXXXXXXXXXXXXXXXXXXXXXXXXXXX",
"XXXXXXXXXXXXXXXXXXXXXXXXXXXXXXXXXXXXXXXXXXXXXXXXXXXXXXXXXXXXXXXXXXXXXXXXXXXXXXXXXXXXXXXXXXXXXXXX",
"XXXXXXXXXXXXXXXXXXXXXXXXXXXXXXXXXXXXXXXXXXXXXXXXXXXXXXXXXXXXXXXXXXXXXXXXXXXXXXXXXXXXXXXXXXXXXXXX",
"XXXXXXXXXXXXXXXXXXXXXXXXXXXXXXXXXXXXXXXXXXXXXXXXXXXXXXXXXXXXXXXXXXXXXXXXXXXXXXXXXXXXXXXXXXXXXXXX",
"XXXXXX        oo         oo         oo         oo         oo         oo         oo        XXXXXX",
"XXXXXX        oo         oo         oo         oo         oo         oo         oo        XXXXXX",
"XXXXXX        oo         oo         oo         oo         oo         oo         oo        XXXXXX",
"XXXXXX        oo         oo         oo         oo         oo         oo         oo        XXXXXX",
"XXXXXX        oo         oo         oo         oo         oo         oo         oo        XXXXXX",
"XXXXXX        oo         oo         oo         oo         oo         oo         oo        XXXXXX",
"XXXXXX        oo         oo         oo         oo         oo         oo         oo        XXXXXX",
"XXXXXX        oo         oo         oo         oo         oo         oo         oo        XXXXXX",
"XXXXXX        oo         oo         oo         oo         oo         oo         oo        XXXXXX",
"XXXXXX        oo         oo         oo         oo         oo         oo         oo        XXXXXX",
"XXXXXX        oo         oo         oo         oo         oo         oo         oo        XXXXXX",
"XXXXXX        oo         oo         oo         oo         oo         oo         oo        XXXXXX",
"XXXXXX        oo         oo         oo         oo         oo         oo         oo        XXXXXX",
"XXXXXX      ++++++     ++++++     ++++++     ++++++     ++++++     ++++++     ++++++      XXXXXX",
"XXXXXX     ++++++++   ++++++++   ++++++++   ++++++++   ++++++++   ++++++++   ++++++++     XXXXXX",
"XXXXXX     ++++++++   ++++++++   ++++++++   ++++++++   ++++++++   ++++++++   ++++++++     XXXXXX",
"XXXXXX     ++++++++   ++++++++   ++++++++   ++++++++   ++++++++   ++++++++   ++++++++     XXXXXX",
"XXXXXX     ++++++++   ++++++++   ++++++++   ++++++++   ++++++++   ++++++++   ++++++++     XXXXXX",
"XXXXXX     ++++++++   ++++++++   ++++++++   ++++++++   ++++++++   ++++++++   ++++++++     XXXXXX",
"XXXXXX      ++++++     ++++++     ++++++     ++++++     ++++++     ++++++     ++++++      XXXXXX",
"XXXXXX        oo         oo         oo         oo         oo         oo         oo        XXXXXX",
"XXXXXX      ++++++     ++++++     ++++++     ++++++     ++++++     ++++++     ++++++      XXXXXX",
"XXXXXX     ++++++++   ++++++++   ++++++++   ++++++++   ++++++++   ++++++++   ++++++++     XXXXXX",
"XXXXXX     ++++++++   ++++++++   ++++++++   ++++++++   ++++++++   ++++++++   ++++++++     XXXXXX",
"XXXXXX     ++++++++   ++++++++   ++++++++   ++++++++   ++++++++   ++++++++   ++++++++     XXXXXX",
"XXXXXX     ++++++++   ++++++++   ++++++++   ++++++++   ++++++++   ++++++++   ++++++++     XXXXXX",
"XXXXXX     ++++++++   ++++++++   ++++++++   ++++++++   ++++++++   ++++++++   ++++++++     XXXXXX",
"XXXXXX      ++++++     ++++++     ++++++     ++++++     ++++++     ++++++     ++++++      XXXXXX",
"XXXXXX        oo         oo         oo         oo         oo         oo         oo        XXXXXX",
"XXXXXX      ++++++     ++++++     ++++++     ++++++     ++++++     ++++++     ++++++      XXXXXX",
"XXXXXX     ++++++++   ++++++++   ++++++++   ++++++++   ++++++++   ++++++++   ++++++++     XXXXXX",
"XXXXXX     ++++++++   ++++++++   ++++++++   ++++++++   ++++++++   ++++++++   ++++++++     XXXXXX",
"XXXXXX     ++++++++   ++++++++   ++++++++   ++++++++   ++++++++   ++++++++   ++++++++     XXXXXX",
"XXXXXX     ++++++++   ++++++++   ++++++++   ++++++++   ++++++++   ++++++++   ++++++++     XXXXXX",
"XXXXXX     ++++++++   ++++++++   ++++++++   ++++++++   ++++++++   ++++++++   ++++++++     XXXXXX",
"XXXXXX      ++++++     ++++++     ++++++     ++++++     ++++++     ++++++     ++++++      XXXXXX",
"XXXXXX        oo         oo         oo         oo         oo         oo         oo        XXXXXX",
"XXXXXX      ++++++     ++++++     ++++++     ++++++     ++++++     ++++++     ++++++      XXXXXX",
"XXXXXX     ++++++++   ++++++++   ++++++++   ++++++++   ++++++++   ++++++++   ++++++++     XXXXXX",
"XXXXXX     ++++++++   ++++++++   ++++++++   ++++++++   ++++++++   ++++++++   ++++++++     XXXXXX",
"XXXXXX     ++++++++   ++++++++   ++++++++   ++++++++   ++++++++   ++++++++   ++++++++     XXXXXX",
"XXXXXX     ++++++++   ++++++++   ++++++++   ++++++++   ++++++++   ++++++++   ++++++++     XXXXXX",
"XXXXXX     ++++++++   ++++++++   ++++++++   ++++++++   ++++++++   ++++++++   ++++++++     XXXXXX",
"XXXXXX      ++++++     ++++++     ++++++     ++++++     ++++++     ++++++     ++++++      XXXXXX",
"XXXXXX        oo         oo         oo         oo         oo         oo         oo        XXXXXX",
"XXXXXX      ++++++     ++++++     ++++++     ++++++     ++++++     ++++++     ++++++      XXXXXX",
"XXXXXX     ++++++++   ++++++++   ++++++++   ++++++++   ++++++++   ++++++++   ++++++++     XXXXXX",
"XXXXXX     ++++++++   ++++++++   ++++++++   ++++++++   ++++++++   ++++++++   ++++++++     XXXXXX",
"XXXXXX     ++++++++   ++++++++   ++++++++   ++++++++   ++++++++   ++++++++   ++++++++     XXXXXX",
"XXXXXX     ++++++++   ++++++++   ++++++++   ++++++++   ++++++++   ++++++++   ++++++++     XXXXXX",
"XXXXXX     ++++++++   ++++++++   ++++++++   ++++++++   ++++++++   ++++++++   ++++++++     XXXXXX",
"XXXXXX      ++++++     ++++++     ++++++     ++++++     ++++++     ++++++     ++++++      XXXXXX",
"XXXXXXXXXXXXXXXXXXXXXXXXXXXXXXXXXXXXXXXXXXXXXXXXXXXXXXXXXXXXXXXXXXXXXXXXXXXXXXXXXXXXXXXXXXXXXXXX",
"XXXXXXXXXXXXXXXXXXXXXXXXXXXXXXXXXXXXXXXXXXXXXXXXXXXXXXXXXXXXXXXXXXXXXXXXXXXXXXXXXXXXXXXXXXXXXXXX",
"XXXXXXXXXXXXXXXXXXXXXXXXXXXXXXXXXXXXXXXXXXXXXXXXXXXXXXXXXXXXXXXXXXXXXXXXXXXXXXXXXXXXXXXXXXXXXXXX",
"XXXXXXXXXXXXXXXXXXXXXXXXXXXXXXXXXXXXXXXXXXXXXXXXXXXXXXXXXXXXXXXXXXXXXXXXXXXXXXXXXXXXXXXXXXXXXXXX",
"XXXXXXXXXXXXXXXXXXXXXXXXXXXXXXXXXXXXXXXXXXXXXXXXXXXXXXXXXXXXXXXXXXXXXXXXXXXXXXXXXXXXXXXXXXXXXXXX",
" XXXXXXXXXXXXXXXXXXXXXXXXXXXXXXXXXXXXXXXXXXXXXXXXXXXXXXXXXXXXXXXXXXXXXXXXXXXXXXXXXXXXXXXXXXXXXX "
};
