/* XPM */
static char *abacus_24x24[] = {
/* width height ncolors chars_per_pixel */
"24 24 4 1",
/* colors */
"  c None",
"+ c #8B0000",
"X c #8B7E66",
"o c #FFD700",
/* pixels */
"XXXXXXXXXXXXXXXXXXXXXXXX",
"X   +    +    +    +   X",
"X  +++  +++  +++  +++  X",
"X   +    +    +    +   X",
"X   o    o    o    o   X",
"X   o    o    o    o   X",
"X   o    o    o    o   X",
"XXXXXXXXXXXXXXXXXXXXXXXX",
"X   o    o    o    o   X",
"X   o    o    o    o   X",
"X   o    o    o    o   X",
"X   +    +    +    +   X",
"X  +++  +++  +++  +++  X",
"X   +    +    +    +   X",
"X   +    +    +    +   X",
"X  +++  +++  +++  +++  X",
"X   +    +    +    +   X",
"X   +    +    +    +   X",
"X  +++  +++  +++  +++  X",
"X   +    +    +    +   X",
"X   +    +    +    +   X",
"X  +++  +++  +++  +++  X",
"X   +    +    +    +   X",
"XXXXXXXXXXXXXXXXXXXXXXXX"
};
