/* XPM */
static char *abacus_16x16[] = {
/* width height ncolors chars_per_pixel */
"16 16 4 1",
/* colors */
"  c None",
"+ c #8B0000",
"X c #8B7E66",
". c #AEB2C3",
/* pixels */
"XXXXXXXXXXXXXXX ",
"X.+++.+++.+++.X ",
"X..+...+...+..X ",
"X.. ... ... ..X ",
"X.. ... ... ..X ",
"X.............X ",
"X.............X ",
"X.. ... ... ..X ",
"X.. ... ... ..X ",
"X..+...+...+..X ",
"X.+++.+++.+++.X ",
"X..+...+...+..X ",
"X.+++.+++.+++.X ",
"X..+...+...+..X ",
"X.+++.+++.+++.X ",
"XXXXXXXXXXXXXXX "
};
