/* XPM */
static char *abacusme_16x16[] = {
/* width height ncolors chars_per_pixel */
"16 16 3 1",
/* colors */
"  c None",
"+ c #000000",
"X c #8B7E66",
/* pixels */
"XXXXXXXXXXXXXXX ",
"X             X ",
"X    +   +    X ",
"X     + +     X ",
"X+++++++++++++X ",
"X     + +     X ",
"X    +   +    X ",
"X             X ",
"X+++++++++++++X ",
"X             X ",
"X             X ",
"X             X ",
"X+++++++++++++X ",
"X             X ",
"XXXXXXXXXXXXXXX ",
"                "
};
