/* XPM */
static char *abacusda_16x16[] = {
/* width height ncolors chars_per_pixel */
"16 16 5 1",
/* colors */
"  c None",
"+ c #8B0000",
"X c #8B7E66",
"O c #CAE1FF",
"- c #8B7355",
/* pixels */
"XXXXXXXXXXXXXXXX",
"X              X",
"X+ + + - - -   X",
"X++++++------OOX",
"X+ + + - - -   X",
"X              X",
"X+ + + - - -   X",
"X++++++------OOX",
"X+ + + - - -   X",
"X              X",
"X+ + + - - -   X",
"X++++++------OOX",
"X+ + + - - -   X",
"X              X",
"XXXXXXXXXXXXXXXX",
"                "
};
